<svg xmlns="http://www.w3.org/2000/svg" viewBox="0 0 220 220" role="img" aria-labelledby="title desc">
  <title id="title">Veterans Upward Bound mark</title>
  <desc id="desc">A subtle navy shield with brass chevrons and VUB lettering.</desc>
  <rect width="220" height="220" rx="34" fill="#f5f3ee"/>
  <path d="M110 24 174 49v55c0 42-24 75-64 92-40-17-64-50-64-92V49l64-25Z" fill="#22384f"/>
  <path d="M68 71 110 53l42 18v28c0 31-15 55-42 69-27-14-42-38-42-69V71Z" fill="#2f465d"/>
  <path d="M72 87h76v10H72z" fill="#8f3845"/>
  <path d="M70 116 110 92l40 24-11 10-29-17-29 17-11-10Z" fill="#b59a5b"/>
  <path d="M79 142 110 124l31 18-10 10-21-12-21 12-10-10Z" fill="#d2c4a0"/>
  <text x="110" y="88" text-anchor="middle" fill="#f7f4ea" font-family="Georgia, 'Times New Roman', serif" font-size="34" font-weight="700" letter-spacing="2">VUB</text>
  <path d="M110 28v162" stroke="#f7f4ea" stroke-opacity=".16" stroke-width="2"/>
</svg>
